<?xml version="1.0" standalone="no"?>
<!DOCTYPE svg PUBLIC "-//W3C//DTD SVG 20010904//EN"
 "http://www.w3.org/TR/2001/REC-SVG-20010904/DTD/svg10.dtd">
<svg version="1.0" xmlns="http://www.w3.org/2000/svg"
 width="500.000000pt" height="500.000000pt" viewBox="0 0 500.000000 500.000000"
 preserveAspectRatio="xMidYMid meet">

<g transform="translate(0.000000,500.000000) scale(0.100000,-0.100000)"
fill="#000000" stroke="none">
<path d="M3435 4963 c-92 -21 -211 -64 -324 -115 l-133 -62 -17 22 c-9 12 -33
28 -54 37 -33 13 -48 14 -95 5 -75 -16 -177 -59 -313 -133 -13 -7 -56 -34 -96
-59 -139 -91 -335 -189 -393 -198 -127 -19 -482 -124 -725 -215 -49 -19 -135
-50 -190 -70 -386 -139 -660 -258 -748 -323 -46 -33 -56 -36 -107 -34 -67 4
-113 -22 -147 -83 -45 -79 -20 -218 45 -261 63 -42 118 -35 281 32 47 20 120
50 161 67 41 16 104 42 140 57 36 15 101 42 145 60 44 18 112 46 150 62 39 17
81 34 95 38 14 5 88 31 164 59 76 28 141 49 144 46 5 -5 -15 -25 -166 -162
-110 -99 -195 -163 -277 -209 -91 -50 -239 -140 -285 -173 -135 -96 -172 -120
-247 -161 -81 -45 -281 -208 -360 -293 -30 -32 -42 -55 -47 -90 -21 -140 99
-237 200 -161 19 15 53 44 77 66 77 72 151 124 265 186 62 34 163 95 225 136
62 41 175 109 251 151 178 98 163 88 410 294 18 15 18 15 6 -9 -14 -25 -99
-150 -171 -250 -42 -57 -190 -277 -199 -295 -3 -5 -27 -44 -54 -85 -194 -298
-228 -346 -361 -510 -62 -77 -168 -232 -221 -325 -6 -11 -50 -87 -98 -169 -93
-161 -176 -327 -196 -391 -7 -22 -22 -61 -33 -87 -23 -55 -19 -115 13 -177 28
-56 67 -81 128 -81 56 0 100 28 128 82 9 16 48 51 92 79 42 28 87 60 100 72
l23 22 -10 -28 c-6 -16 -11 -56 -11 -90 0 -72 19 -110 75 -153 43 -32 102 -37
152 -11 34 18 159 45 358 77 66 11 135 24 153 29 17 5 32 7 32 3 0 -25 -182
-302 -242 -368 -45 -48 -54 -54 -90 -54 -54 0 -116 -36 -139 -81 -10 -21 -33
-48 -50 -60 -17 -13 -54 -45 -80 -70 -49 -46 -49 -47 -49 -109 0 -77 25 -133
77 -172 46 -36 99 -37 162 -4 25 14 89 42 141 62 144 56 220 97 395 213 145
97 284 175 294 165 6 -5 -74 -123 -111 -165 -149 -166 -176 -203 -197 -271
-15 -46 -1 -106 37 -161 67 -99 130 -91 542 71 212 83 318 134 560 265 244
132 455 260 615 371 150 105 170 118 248 163 31 18 85 49 120 69 88 51 362
189 424 213 59 23 149 47 339 90 263 59 381 109 413 176 20 41 26 135 11 181
-14 44 -61 98 -104 121 -20 10 -64 16 -130 18 -56 2 -145 13 -198 24 -151 32
-470 81 -592 91 -158 14 -216 21 -216 29 0 6 127 79 275 156 226 119 513 288
665 393 102 70 284 221 391 323 58 55 68 71 78 116 27 129 -42 239 -147 237
-47 -1 -109 -29 -207 -94 -22 -15 -44 -29 -50 -31 -5 -2 -68 -42 -140 -89
-140 -92 -146 -96 -935 -625 l-535 -359 -90 -13 c-95 -15 -212 -45 -333 -87
-101 -35 -110 -34 -72 12 87 101 196 241 261 334 190 271 208 293 472 553 227
224 382 388 417 440 8 12 22 29 30 38 8 8 31 34 50 57 19 24 43 52 54 64 10
11 114 140 231 286 204 255 287 345 346 375 34 18 70 75 79 127 16 88 -32 185
-105 213 -40 16 -47 16 -106 -1 -199 -55 -443 -185 -849 -451 -147 -97 -408
-279 -605 -423 -60 -44 -113 -80 -117 -80 -4 0 16 34 45 75 28 41 84 119 122
175 131 188 178 245 344 415 434 444 530 608 442 760 -16 28 -35 56 -43 62
-17 15 -57 22 -83 16z m-650 -695 c-81 -96 -250 -328 -410 -563 -112 -166
-215 -312 -280 -397 -120 -159 -183 -247 -229 -318 -27 -41 -69 -105 -93 -142
-25 -37 -69 -85 -100 -110 -161 -124 -183 -144 -518 -464 -264 -251 -310 -293
-302 -270 8 21 15 31 153 201 86 106 261 358 355 510 41 67 252 381 269 400
49 56 186 274 238 380 33 66 80 147 104 180 55 74 227 247 398 401 119 107
134 117 212 143 46 16 115 43 153 59 39 17 74 31 78 31 5 1 -8 -18 -28 -41z
m635 -698 c-81 -103 -223 -254 -435 -465 -248 -247 -340 -351 -450 -513 -85
-126 -187 -258 -320 -417 -55 -66 -123 -151 -150 -190 -113 -160 -159 -215
-178 -215 -29 0 -217 -71 -329 -124 -107 -51 -285 -112 -295 -102 -3 2 27 52
66 110 39 58 71 108 71 111 0 3 8 18 19 33 10 15 54 81 97 147 85 130 127 187
228 310 37 44 96 119 132 167 47 62 90 105 152 151 48 36 150 113 227 172 284
217 447 340 468 355 13 8 101 74 198 146 227 170 508 364 527 364 2 0 -11 -18
-28 -40z m20 -1946 c74 -8 187 -19 250 -25 63 -6 123 -15 135 -19 17 -7 13
-11 -30 -31 -77 -37 -369 -195 -475 -257 -91 -54 -289 -185 -413 -272 -31 -22
-74 -50 -95 -62 -268 -153 -441 -247 -581 -314 -109 -52 -141 -62 -141 -44 0
47 190 294 384 500 270 286 481 497 534 532 24 17 40 19 162 13 74 -4 196 -13
270 -21z m-2715 -184 c-10 -11 -20 -18 -23 -15 -7 6 18 35 31 35 5 0 2 -9 -8
-20z m1390 -19 c-105 -99 -365 -308 -365 -293 0 15 303 299 325 305 11 2 29 5
40 6 19 1 19 1 0 -18z"/>
</g>
</svg>
